<svg width="60" height="60" viewBox="0 0 60 60" xmlns="http://www.w3.org/2000/svg">
  <g fill="none" fill-rule="evenodd">
    <g fill="currentColor" fill-opacity="0.07">
      <!-- Paw Print -->
      <path d="M36 34c0-2.21-1.79-4-4-4s-4 1.79-4 4 1.79 4 4 4 4-1.79 4-4zM36 24c0-1.66-1.34-3-3-3s-3 1.34-3 3 1.34 3 3 3 3-1.34 3-3zM28 24c0-1.66-1.34-3-3-3s-3 1.34-3 3 1.34 3 3 3 3-1.34 3-3zM42 28c0-1.66-1.34-3-3-3s-3 1.34-3 3 1.34 3 3 3 3-1.34 3-3zM22 28c0-1.66-1.34-3-3-3s-3 1.34-3 3 1.34 3 3 3 3-1.34 3-3z"/>
      <!-- Small Cat Head -->
      <path d="M10 10c0-2.2 1.8-4 4-4h6c2.2 0 4 1.8 4 4v2c0 2.2-1.8 4-4 4h-6c-2.2 0-4-1.8-4-4v-2zm-2-2l2 2v-4l-2 2zm18 0l-2-2 2 4v-2z"/>
      <!-- Tiny Heart -->
      <path d="M50 50c-1.1-2-4-2-5 0-1-2-4-2-5 0-1 2 1 4 2.5 5.5l2.5 2.5 2.5-2.5c1.5-1.5 3.5-3.5 2.5-5.5z"/>
      <!-- Sparkle -->
      <path d="M55 5l1 3 3 1-3 1-1 3-1-3-3-1 3-1 1-3z"/>
    </g>
  </g>
</svg>
