<?xml version="1.0" encoding="UTF-8"?><svg id="Layer_1" xmlns="http://www.w3.org/2000/svg" width="32.95" height="25.73" viewBox="0 0 32.95 25.73"><defs><style>.cls-1{fill:#bb71dc;}</style></defs><path class="cls-1" d="M22.04,15.51c.11-.49.6-.8,1.09-.69l4.89,1.1c.08-.49.13-.99.13-1.49,0-1.1-.22-2.16-.6-3.16l-4.73.86c-.06.01-.11.02-.16.02-.43,0-.81-.31-.89-.75-.09-.5.24-.97.73-1.06l4.27-.78V2.09c0-.82-1-1.27-1.64-.64l-3.73,3.73c-1.06-.42-2.29-.73-3.68-.85-.41-.04-.82-.06-1.24-.06s-.83.02-1.24.06c-1.39.12-2.62.43-3.68.85l-3.73-3.73c-.64-.64-1.64-.18-1.64.64v7.47l4.27.78c.49.09.82.56.73,1.06-.08.44-.46.75-.89.75-.05,0-.11,0-.16-.02l-4.73-.86c-.38,1-.6,2.05-.6,3.16,0,.51.05,1.01.13,1.49l4.89-1.1c.49-.11.98.2,1.09.69.11.49-.2.98-.69,1.09l-4.8,1.08c.39.99.94,1.91,1.64,2.74.05.07.12.14.18.2.09.11.18.21.28.32.16.18.31.37.49.55,2.64,2.55,5.46,3.1,8.47,3.1s5.92-.64,8.47-3.1c.41-.38.76-.79,1.07-1.22.64-.79,1.15-1.66,1.51-2.59l-4.8-1.08c-.49-.11-.8-.6-.69-1.09Z"/><path class="cls-1" d="M6.19,9.56l-3.43-.63c-.49-.09-.97.24-1.06.73-.09.5.24.97.73,1.06l2.97.54c.21-.57.46-1.12.78-1.64v-.07Z"/><path class="cls-1" d="M2.19,16.54c-.49.11-.8.6-.69,1.09.1.42.47.71.89.71.07,0,.13,0,.2-.02l2.84-.64c-.22-.56-.38-1.15-.49-1.76l-2.75.62Z"/><path class="cls-1" d="M27.55,11.27l2.97-.54c.49-.09.82-.56.73-1.06-.09-.49-.57-.83-1.06-.73l-3.43.63v.07c.32.52.57,1.07.78,1.64Z"/><path class="cls-1" d="M30.76,16.54l-2.75-.62c-.1.6-.27,1.19-.49,1.76l2.84.64c.07.02.13.02.2.02.42,0,.79-.29.89-.71.11-.49-.2-.98-.69-1.09Z"/></svg>