<svg xmlns="http://www.w3.org/2000/svg" id="Layer_1" version="1.1" viewBox="0 0 196.7 44.3"><defs><style>.st0{fill:#bb71dc}</style></defs><path d="M8.1 23.4v10.3H0V2.6h12.9c2.7 0 5.5.5 7.9 2.8s2.9 4.9 2.9 7.5-.3 5.4-2.7 7.7c-2.4 2.4-5.3 2.7-7.7 2.7H8.2Zm0-6.5h2.7c.8 0 2.4 0 3.4-1 1-.8 1-2.1 1-2.8s0-2-.9-2.8c-.9-1-2.4-1.1-3.4-1.1H8.2v7.7ZM33.4 12.9v11.6c0 .8.1 2.1 1.1 3 .7.7 1.7.8 2.6.8s1.8 0 2.7-.9 1.1-2 1.1-2.9V12.9h7.5v13c0 1.8-.1 3.7-2 5.6-2.6 2.7-6.1 2.9-9 2.9s-6.9-.3-9.4-3c-1.6-1.7-2-3.5-2-5.5v-13h7.5ZM51.2 12.9h7.5v3.4c.7-1.4 1.8-2.3 2.9-2.9s2.5-.8 3.9-.8H67v7c-.4-.2-1.4-.7-3.2-.7s-2.3.1-3.4 1.1c-1.6 1.4-1.7 3.6-1.7 4.8v8.9h-7.5zM69 12.9h7.5v3.4c.7-1.4 1.8-2.3 2.9-2.9s2.5-.8 3.9-.8h1.5v7c-.4-.2-1.4-.7-3.2-.7s-2.3.1-3.4 1.1c-1.6 1.4-1.7 3.6-1.7 4.8v8.9H69zM90.5 0c-2.3 0-4.2 1.9-4.2 4.2s1.9 4.2 4.2 4.2 4.2-1.9 4.2-4.2S92.8 0 90.5 0m1.3 17.3 2.5.4v-4.9h-7.5v20.8h7.5v-6.8l-2.4.5h-.2c-.5 0-.9-.3-1-.8s.2-1.1.8-1.2l2.8-.6v-5l-2.8-.5c-.5 0-.9-.6-.8-1.2 0-.5.6-.9 1.1-.8ZM138.5 22.5c-.6-.6-2.1-1.4-3.1-1.6l-1.3-.4c-1.2-.3-1.8-.3-2.5-.6-.5-.2-.9-.5-.9-1.2v-.2c0-.4.3-.7.7-.9.5-.3 1-.4 1.7-.4 1.4 0 2.9.6 3.9 1l2.5-4.8c-1.2-.5-3.6-1.4-6.7-1.4s-5.9.9-7.5 2.5c-.8.9-1.5 2-1.8 3.4l4.1-.7c.5 0 1.1.3 1.1.8v.2c0 .5-.4.9-.8 1l-4.6.8c0 1.4.6 2.5 1.3 3.2 1.1 1.2 2.6 1.6 3.6 1.8l2 .5c.7.2 1.5.3 1.9.7.3.3.4.6.4.9s0 .7-.4 1c-.5.4-1.3.6-1.9.6-.8 0-2-.2-2.9-.5-1-.3-2.1-.9-3-1.5l-2.7 5.2c3.6 2.2 6.5 2.4 8.4 2.4s5.3-.2 7.7-2.6c1-1 2.1-2.7 2.1-5.2s-.6-3.2-1.6-4.1ZM146.4 0c2.3 0 4.2 1.9 4.2 4.2s-1.9 4.2-4.2 4.2-4.2-1.9-4.2-4.2S144 0 146.4 0m3.7 12.9v20.8h-7.5V12.9zM163.2 19v14.7h-7.5V19h-2.4v-6.1h2.4V6.1h7.5v6.8h4.2V19zM178.6 30.8l-10.1-18h8.7l5.5 10.7 5.4-10.7h8.5l-16.7 31.5h-8.3zM118.8 24.4c-.1.5.2 1.1.8 1.2l2.3.5c-.5 1.7-1.4 3.4-2.9 4.8-2.8 2.7-6 3.4-9.3 3.4s-6.4-.6-9.3-3.4c-1.5-1.5-2.4-3.1-2.9-4.8l2.3-.5c.5-.1.9-.7.8-1.2s-.7-.9-1.2-.8l-2.2.5v-.9c0-1.1.1-2 .4-2.9l2 .3h.2c.5 0 .9-.4 1-.8 0-.5-.3-1.1-.8-1.2l-1.6-.3V9.6c0-.9 1.1-1.4 1.8-.7l4.1 4.1c1.5-.6 3.3-1 5.4-1s3.9.4 5.4 1l4.1-4.1c.7-.7 1.8-.2 1.8.7v8.7l-1.6.3c-.5.1-.9.6-.8 1.2 0 .5.5.8 1 .8h.2l2-.3c.2.9.4 1.8.4 2.9v.9l-2.2-.5c-.5-.1-1.1.2-1.2.8" class="st0"/></svg>