<svg width="32" height="32" viewBox="0 0 32 32" fill="none" xmlns="http://www.w3.org/2000/svg">
  <circle cx="16" cy="16" r="16" fill="#9B59B6"/>
  <path d="M16 8C13 8 11 10 11 12C11 13 11.5 14 12 14.5C12 14.5 12 15 12 16C12 18 14 20 16 20C18 20 20 18 20 16C20 15 20 14.5 20 14.5C20.5 14 21 13 21 12C21 10 19 8 16 8Z" fill="white"/>
  <ellipse cx="14" cy="12" rx="1" ry="1.5" fill="#2C2C2C"/>
  <ellipse cx="18" cy="12" rx="1" ry="1.5" fill="#2C2C2C"/>
  <path d="M16 14C15.5 14 15 14.2 15 14.5C15 14.8 15.5 15 16 15C16.5 15 17 14.8 17 14.5C17 14.2 16.5 14 16 14Z" fill="#2C2C2C"/>
  <path d="M13 10L11 9M19 10L21 9M10 13L8 13M22 13L24 13" stroke="white" stroke-width="1.5" stroke-linecap="round"/>
</svg>
