<?xml version="1.0" encoding="UTF-8"?><svg id="Layer_2" xmlns="http://www.w3.org/2000/svg" width="56" height="56" viewBox="0 0 56 56"><defs><style>.cls-1{fill:#fff;}.cls-2{fill:#bb71dc;}</style></defs><path class="cls-2" d="M28,0C43.46,0,56,12.54,56,28s-12.54,28-28,28S0,43.46,0,28,12.53,0,28,0ZM47.58,22.45c.59-.11.98-.67.88-1.25-.11-.59-.66-.98-1.26-.88l-5.5.98c-.23-.66-.49-1.3-.83-1.91v-9.35c0-.97-1.19-1.51-1.95-.75l-4.42,4.42c-1.27-.5-2.74-.87-4.4-1.01-.48-.04-.95-.07-1.43-.07s-.96.03-1.43.07c-1.66.14-3.13.51-4.39,1.01l-4.43-4.42c-.75-.76-1.94-.22-1.94.75v11.22l-5.27-.94c-.59-.11-1.14.29-1.25.88-.1.58.29,1.14.88,1.25l5.64,1v4.77l-5.65,1.21c-.58.13-.95.7-.83,1.29.11.5.56.85,1.06.85.07,0,.15,0,.22-.03l5.2-1.11v17.32h11.08v-10.56c.37.03.74.04,1.11.04,5.44,0,10.13-2.87,12.33-7l6.13,1.31c.08.02.16.03.23.03.5,0,.95-.35,1.06-.85.12-.59-.25-1.16-.83-1.29l-5.75-1.23c.32-1.04.51-2.13.51-3.27,0-.52-.05-1.03-.12-1.53l5.35-.95Z"/><path class="cls-1" d="M48.46,21.2c.1.58-.29,1.14-.88,1.25l-5.35.95c-.1-.72-.29-1.42-.53-2.1l5.5-.98c.6-.1,1.15.29,1.26.88Z"/><path class="cls-1" d="M47.59,29.43c.58.13.95.7.83,1.29-.11.5-.56.85-1.06.85-.07,0-.15,0-.23-.03l-6.13-1.31c.34-.65.63-1.33.84-2.03l5.75,1.23Z"/><path class="cls-1" d="M42.23,23.4c.07.5.12,1.01.12,1.53,0,1.14-.19,2.23-.51,3.27l-3.59-.77c-.58-.13-1.16.24-1.28.83-.13.58.24,1.15.82,1.28l3.21.69c-2.2,4.13-6.89,7-12.33,7-.37,0-.74-.01-1.11-.04v10.56h-11.08v-17.32l4.15-.89c.58-.13.95-.7.82-1.28-.12-.59-.7-.96-1.28-.83l-3.69.79v-4.77l3.76.67c.07.02.13.02.19.02.52,0,.97-.37,1.06-.89.11-.58-.28-1.15-.87-1.25l-4.14-.74v-11.22c0-.97,1.19-1.51,1.94-.75l4.43,4.42c1.26-.5,2.73-.87,4.39-1.01.47-.04.95-.07,1.43-.07s.95.03,1.43.07c1.66.14,3.13.51,4.4,1.01l4.42-4.42c.76-.76,1.95-.22,1.95.75v9.35c.34.61.6,1.25.83,1.91l-3.9.7c-.59.1-.98.67-.87,1.25.09.52.54.89,1.06.89.06,0,.12,0,.19-.02l4.05-.72ZM33.12,24.78c0-.76,0-2.16-.98-3.02-.97-1.08-2.58-1.19-3.66-1.19h-2.92v8.31h2.81c.86,0,2.59,0,3.67-1.08,1.08-.87,1.08-2.27,1.08-3.02Z"/><path class="cls-2" d="M42.23,23.4l-4.05.72c-.07.02-.13.02-.19.02-.52,0-.97-.37-1.06-.89-.11-.58.28-1.15.87-1.25l3.9-.7c.24.68.43,1.38.53,2.1Z"/><path class="cls-2" d="M38.25,27.43l3.59.77c-.21.7-.5,1.38-.84,2.03l-3.21-.69c-.58-.13-.95-.7-.82-1.28.12-.59.7-.96,1.28-.83Z"/><path class="cls-2" d="M32.14,21.76c.98.86.98,2.26.98,3.02s0,2.15-1.08,3.02c-1.08,1.08-2.81,1.08-3.67,1.08h-2.81v-8.31h2.92c1.08,0,2.69.11,3.66,1.19Z"/><path class="cls-2" d="M20.62,22c.59.1.98.67.87,1.25-.09.52-.54.89-1.06.89-.06,0-.12,0-.19-.02l-3.76-.67v-2.19l4.14.74Z"/><path class="cls-2" d="M21.45,28.26c.13.58-.24,1.15-.82,1.28l-4.15.89v-2.21l3.69-.79c.58-.13,1.16.24,1.28.83Z"/><path class="cls-1" d="M16.48,28.22v2.21l-5.2,1.11c-.07.02-.15.03-.22.03-.5,0-.95-.35-1.06-.85-.12-.59.25-1.16.83-1.29l5.65-1.21Z"/><path class="cls-1" d="M16.48,21.26v2.19l-5.64-1c-.59-.11-.98-.67-.88-1.25.11-.59.66-.99,1.25-.88l5.27.94Z"/></svg>