<?xml version="1.0" encoding="UTF-8"?><svg id="Layer_2" xmlns="http://www.w3.org/2000/svg" width="56" height="56" viewBox="0 0 56 56"><defs><style>.cls-1{fill:#fff;}.cls-2{fill:#bb71dc;}</style></defs><circle class="cls-1" cx="28" cy="28" r="28"/><path class="cls-2" d="M37.54,33.61c.17-.72.88-1.16,1.6-.99l5.37,1.26c.43-1.32.67-2.7.67-4.14,0-.78-.09-1.54-.22-2.28l-5.93,1.15c-.08.02-.17.02-.25.02-.63,0-1.18-.44-1.31-1.08-.14-.72.33-1.42,1.06-1.56l5.7-1.1c-.32-.83-.7-1.65-1.18-2.41v-11.01c0-1.2-1.47-1.87-2.4-.93l-5.46,5.46c-1.55-.62-3.35-1.07-5.38-1.25-.6-.06-1.2-.09-1.82-.09s-1.22.03-1.82.09c-2.03.18-3.83.63-5.38,1.25l-5.46-5.46c-.93-.93-2.4-.27-2.4.93v11.01c-.48.76-.85,1.57-1.18,2.41l5.7,1.1c.72.14,1.2.84,1.06,1.56-.12.64-.68,1.08-1.31,1.08-.08,0-.17,0-.25-.02l-5.93-1.15c-.13.75-.22,1.5-.22,2.28,0,1.44.24,2.83.67,4.14l5.37-1.26c.71-.16,1.43.28,1.6.99.17.72-.28,1.43-.99,1.6l-4.89,1.14c2.8,5,8.64,8.45,15.42,8.45s12.62-3.45,15.42-8.45l-4.89-1.14c-.72-.17-1.16-.89-.99-1.6Z"/><path class="cls-2" d="M5.55,23.68c-.72-.13-1.42.33-1.56,1.06-.14.72.33,1.42,1.06,1.56l5.99,1.16c.15-.89.41-1.74.73-2.57l-6.21-1.2Z"/><path class="cls-2" d="M5.04,35.38c-.72.17-1.16.89-.99,1.6.14.62.69,1.03,1.3,1.03.1,0,.2-.01.3-.04l6.93-1.62c-.44-.79-.81-1.62-1.09-2.48l-6.44,1.51Z"/><path class="cls-2" d="M50.96,26.3c.72-.14,1.2-.84,1.06-1.56-.14-.72-.84-1.2-1.56-1.06l-6.21,1.2c.32.83.58,1.69.73,2.57l5.99-1.16Z"/><path class="cls-2" d="M50.96,35.38l-6.44-1.51c-.28.86-.65,1.69-1.09,2.48l6.93,1.62c.1.02.2.04.3.04.61,0,1.15-.41,1.3-1.03.17-.72-.28-1.43-.99-1.6Z"/></svg>